
General
Complete name : Lil Wayne - My Homies Still (Explicit) ft. Big Sean720pHD{ECS}.mp4
Format : MPEG-4
Format profile : Base Media
Codec ID : isom
File size : 55.1 MiB
Duration : 4mn 17s
Overall bit rate : 1 797 Kbps
Encoded date : UTC 2012-07-18 04:40:49
Tagged date : UTC 2012-07-18 04:40:49

Video
ID : 1
Format : AVC
Format/Info : Advanced Video Codec
Format profile : High@L3.1
Format settings, CABAC : Yes
Format settings, ReFrames : 5 frames
Codec ID : avc1
Codec ID/Info : Advanced Video Coding
Duration : 4mn 17s
Bit rate : 1 664 Kbps
Maximum bit rate : 4 713 Kbps
Width : 1 280 pixels
Height : 720 pixels
Display aspect ratio : 16:9
Frame rate mode : Constant
Frame rate : 24.000 fps
Color space : YUV
Chroma subsampling : 4:2:0
Bit depth : 8 bits
Scan type : Progressive
Bits/(Pixel*Frame) : 0.075
Stream size : 51.1 MiB (93%)
Writing library : x264 core 125 r2200 999b753

Audio
ID : 2
Format : AC-3
Format/Info : Audio Coding 3
Mode extension : CM (complete main)
Format settings, Endianness : Big
Codec ID : ac-3
Duration : 4mn 17s
Bit rate mode : Constant
Bit rate : 128 Kbps
Channel(s) : 2 channels
Channel positions : Front: L R
Sampling rate : 44.1 KHz
Bit depth : 16 bits
Compression mode : Lossy
Stream size : 3.92 MiB (7%)
Encoded date : UTC 2012-07-18 04:40:50
Tagged date : UTC 2012-07-18 04:40:50
 
http://i1271.photobucket.com/albums/jj629/sameer_ecs/LilWayne-MyHomiesStillExplicitftBigSean720pHDECSmp4_thumbs_20120719_022746.jpg